<?xml version="1.0" standalone="no"?>
<!DOCTYPE svg PUBLIC "-//W3C//DTD SVG 20010904//EN"
 "http://www.w3.org/TR/2001/REC-SVG-20010904/DTD/svg10.dtd">
<svg version="1.0" xmlns="http://www.w3.org/2000/svg"
 width="200.000000pt" height="200.000000pt" viewBox="0 0 200.000000 200.000000"
 preserveAspectRatio="xMidYMid meet">
<metadata>
Created by potrace 1.11, written by Peter Selinger 2001-2013
</metadata>
<g transform="translate(0.000000,200.000000) scale(0.100000,-0.100000)"
fill="#000000" stroke="none">
<path d="M946 1979 c-110 -38 -182 -103 -231 -211 -14 -30 -27 -77 -29 -104
-3 -27 -5 -51 -6 -54 0 -3 -9 16 -19 41 -49 126 -163 200 -298 193 -111 -5
-203 -66 -254 -169 -26 -54 -31 -75 -30 -132 2 -129 89 -249 205 -284 25 -7
46 -16 46 -19 -1 -3 -15 -14 -32 -25 -67 -43 -68 -52 -68 -428 0 -326 1 -341
21 -377 34 -60 68 -74 196 -80 l112 -5 -85 -139 c-47 -76 -87 -143 -90 -147
-3 -5 30 -9 73 -9 l78 1 110 139 c61 77 112 140 115 139 3 0 55 -63 115 -139
l110 -140 73 0 c39 0 72 3 72 6 0 3 -37 67 -82 142 -46 75 -84 140 -86 143 -2
4 64 9 145 11 166 3 200 15 237 77 18 32 20 55 20 370 1 317 0 338 -19 376
-30 60 -74 85 -154 86 l-66 0 50 17 c89 31 183 110 224 190 58 111 50 265 -18
376 -87 139 -279 208 -435 155z m232 -166 c131 -81 148 -271 32 -363 -154
-122 -365 -29 -374 165 -8 175 192 291 342 198z m-718 -142 c49 -35 72 -81 68
-137 -9 -112 -119 -173 -218 -121 -92 49 -109 171 -33 241 49 46 131 54 183
17z m233 -127 c15 -79 65 -164 123 -213 38 -31 120 -74 141 -74 7 0 13 -4 13
-8 0 -4 -120 -7 -267 -7 l-268 0 53 20 c106 40 192 161 192 270 0 42 6 48 13
12z m314 -300 c-3 -3 -12 -4 -19 -1 -8 3 -5 6 6 6 11 1 17 -2 13 -5z"/>
<path d="M1628 1127 l-188 -112 3 -229 2 -230 140 -83 c77 -46 147 -87 155
-93 34 -23 72 -41 76 -37 2 2 3 205 2 450 l-3 446 -187 -112z"/>
</g>
</svg>
